<?xml version="1.0" encoding="UTF-8" standalone="no"?>
<!DOCTYPE svg PUBLIC "-//W3C//DTD SVG 1.1//EN" "http://www.w3.org/Graphics/SVG/1.1/DTD/svg11.dtd">
<svg version="1.1" xmlns="http://www.w3.org/2000/svg" xmlns:xlink="http://www.w3.org/1999/xlink" preserveAspectRatio="xMidYMid meet" viewBox="0 0 700 700" width="700" height="700"><defs><path d="M670.2 350.06C670.64 524.35 527.8 666.22 351.41 666.67C175.03 667.11 31.48 525.96 31.04 351.66C30.6 177.37 173.44 35.5 349.82 35.05C526.21 34.61 669.76 175.76 670.2 350.06Z" id="b10PtmP644"></path><radialGradient id="gradientf12IeVSvCP" gradientUnits="userSpaceOnUse" cx="350.6" cy="342.87" dx="352.19" dy="974.48" r="631.61"><stop style="stop-color: #c1d4ec;stop-opacity: 1" offset="0%"></stop><stop style="stop-color: #010000;stop-opacity: 1" offset="100%"></stop></radialGradient><clipPath id="clipb1lIXr32px"><use xlink:href="#b10PtmP644" opacity="1"></use></clipPath></defs><g><g><g><g><filter id="shadow8733868" x="-53.96" y="-49.95" width="809.16" height="801.61" filterUnits="userSpaceOnUse" primitiveUnits="userSpaceOnUse"><feFlood></feFlood><feComposite in2="SourceAlpha" operator="in"></feComposite><feGaussianBlur stdDeviation="5"></feGaussianBlur><feOffset dx="0" dy="0" result="afterOffset"></feOffset><feFlood flood-color="#6b7582" flood-opacity="1"></feFlood><feComposite in2="afterOffset" operator="in"></feComposite><feMorphology operator="dilate" radius="30"></feMorphology><feComposite in2="SourceAlpha" operator="out"></feComposite></filter><path d="M670.2 350.06C670.64 524.35 527.8 666.22 351.41 666.67C175.03 667.11 31.48 525.96 31.04 351.66C30.6 177.37 173.44 35.5 349.82 35.05C526.21 34.61 669.76 175.76 670.2 350.06Z" id="f3pgrKUxIg" fill="white" fill-opacity="1" filter="url(#shadow8733868)"></path></g><use xlink:href="#b10PtmP644" opacity="1" fill="url(#gradientf12IeVSvCP)"></use><g clip-path="url(#clipb1lIXr32px)"><use xlink:href="#b10PtmP644" opacity="1" fill-opacity="0" stroke="#656e7b" stroke-width="2" stroke-opacity="1"></use></g></g></g></g></svg>