<?xml version="1.0" standalone="no"?>
<!DOCTYPE svg PUBLIC "-//W3C//DTD SVG 20010904//EN"
 "http://www.w3.org/TR/2001/REC-SVG-20010904/DTD/svg10.dtd">
<svg version="1.0" xmlns="http://www.w3.org/2000/svg"
 width="1258.000000pt" height="1496.000000pt" viewBox="0 0 1258.000000 1496.000000"
 preserveAspectRatio="xMidYMid meet">

<g transform="translate(0.000000,1496.000000) scale(0.100000,-0.100000)"
fill="#000000" stroke="none">
<path d="M10820 14363 c-14 -3 -29 -11 -33 -19 -4 -8 -15 -14 -22 -14 -8 0
-15 -4 -15 -10 0 -5 -7 -10 -16 -10 -16 0 -184 -163 -184 -178 0 -4 -12 -20
-28 -37 -15 -16 -37 -48 -49 -70 -12 -22 -38 -70 -59 -107 -20 -38 -40 -68
-45 -68 -5 0 -9 -9 -9 -20 0 -11 -4 -20 -10 -20 -5 0 -10 -9 -10 -20 0 -11 -3
-20 -8 -20 -4 0 -12 -9 -17 -19 -6 -11 -27 -50 -47 -87 -21 -38 -38 -74 -38
-81 0 -7 -4 -13 -9 -13 -5 0 -35 -53 -67 -117 -33 -65 -64 -123 -70 -129 -6
-7 -35 -61 -65 -120 -30 -60 -59 -114 -65 -120 -5 -7 -44 -79 -84 -160 -41
-82 -78 -151 -82 -154 -4 -3 -52 -93 -106 -200 -123 -243 -190 -364 -202 -368
-6 -2 -10 -12 -10 -23 0 -10 -4 -19 -10 -19 -5 0 -10 -9 -10 -20 0 -11 -4 -20
-9 -20 -5 0 -11 -8 -15 -17 -3 -10 -24 -47 -46 -82 -22 -34 -40 -67 -40 -72 0
-5 -3 -9 -7 -9 -5 0 -21 -25 -38 -55 -16 -30 -33 -55 -37 -55 -4 0 -8 -6 -8
-13 0 -7 -8 -22 -18 -33 -10 -10 -33 -41 -52 -69 -19 -27 -58 -76 -87 -107
-29 -31 -53 -60 -53 -65 0 -5 -12 -16 -27 -25 -16 -10 -42 -30 -58 -45 -40
-36 -70 -53 -94 -53 -11 0 -23 -4 -26 -10 -3 -5 -39 -10 -80 -10 -41 0 -77 5
-80 10 -3 6 -30 10 -60 10 -30 0 -56 4 -59 9 -3 5 -20 11 -38 14 -111 20 -131
25 -323 78 -22 6 -49 15 -60 19 -11 5 -33 11 -50 13 -32 5 -328 103 -357 118
-10 5 -27 9 -38 9 -11 0 -20 5 -20 10 0 6 -7 10 -15 10 -8 0 -23 4 -33 9 -9 6
-41 17 -69 26 -29 9 -55 21 -58 26 -4 5 -17 9 -30 9 -13 0 -27 5 -30 10 -3 6
-16 10 -29 10 -12 0 -26 4 -31 9 -6 5 -41 20 -80 34 -38 14 -95 35 -125 46
-30 12 -63 21 -72 21 -10 0 -18 5 -18 10 0 6 -8 10 -18 10 -10 0 -22 3 -25 7
-4 4 -35 16 -70 29 -140 49 -213 77 -222 85 -5 5 -19 9 -31 9 -13 0 -26 5 -29
10 -3 6 -15 10 -26 10 -10 0 -27 4 -37 10 -9 5 -37 16 -62 24 -81 27 -120 42
-126 49 -4 4 -16 7 -26 7 -10 0 -26 4 -36 9 -22 11 -131 45 -198 61 -96 24
-154 -8 -154 -85 0 -51 51 -112 136 -161 27 -15 51 -31 54 -34 6 -7 136 -70
144 -70 3 0 47 -20 98 -45 51 -25 100 -45 108 -45 9 0 20 -4 25 -8 6 -5 42
-21 80 -36 39 -15 78 -32 87 -37 10 -5 25 -9 33 -9 8 0 15 -4 15 -10 0 -5 8
-10 17 -10 17 0 121 -33 158 -51 43 -19 161 -59 177 -59 10 0 18 -4 18 -10 0
-5 13 -10 28 -10 16 0 32 -3 35 -7 4 -4 35 -16 70 -28 34 -13 93 -34 132 -49
38 -14 78 -26 87 -26 10 0 18 -4 18 -10 0 -5 7 -10 15 -10 8 0 23 -4 33 -10 9
-5 67 -26 127 -46 61 -19 114 -40 119 -45 6 -5 19 -9 31 -9 12 0 25 -4 31 -9
5 -5 41 -20 79 -34 165 -60 190 -70 193 -78 2 -5 16 -9 32 -9 16 0 30 -4 32
-8 4 -9 93 -52 108 -52 6 0 31 -11 56 -25 25 -14 51 -25 58 -25 18 0 270 -129
274 -141 2 -5 10 -9 17 -9 7 0 25 -15 40 -32 14 -18 33 -41 41 -51 54 -66 104
-211 104 -300 0 -36 5 -69 10 -72 13 -8 13 -98 1 -110 -5 -6 -12 -53 -14 -105
-5 -101 -16 -175 -42 -280 -9 -36 -19 -80 -22 -98 -3 -18 -9 -35 -14 -38 -5
-3 -9 -18 -9 -35 0 -16 -4 -29 -10 -29 -5 0 -10 -8 -10 -17 0 -9 -5 -33 -11
-52 -6 -20 -15 -52 -21 -71 -13 -45 -56 -160 -69 -182 -5 -10 -9 -29 -9 -43 0
-14 -3 -25 -8 -25 -4 0 -18 -25 -31 -54 -22 -53 -88 -125 -139 -153 -12 -7
-39 -13 -61 -13 -23 0 -41 -5 -44 -12 -3 -10 -9 -10 -28 -1 -13 7 -53 14 -89
17 -64 4 -119 13 -230 35 -156 30 -209 41 -250 51 -25 7 -62 14 -83 17 -20 3
-40 9 -43 14 -3 5 -15 9 -28 9 -12 0 -26 4 -32 8 -5 5 -36 17 -69 27 -56 16
-224 92 -235 105 -3 3 -23 19 -45 35 -52 39 -92 81 -100 106 -4 10 -11 19 -16
19 -5 0 -9 8 -9 18 0 9 -9 42 -20 72 -15 41 -20 80 -20 153 0 111 -5 122 -84
200 -50 49 -150 107 -186 107 -11 0 -20 5 -20 10 0 6 -13 10 -29 10 -17 0 -33
5 -36 10 -3 6 -16 10 -27 10 -12 0 -35 4 -52 9 -105 32 -140 37 -456 62 -177
15 -1310 22 -1335 9 -11 -5 -119 -12 -240 -14 -213 -4 -705 -26 -1045 -47 -91
-5 -255 -12 -365 -15 -110 -3 -204 -9 -209 -14 -6 -6 -113 -10 -257 -10 -155
0 -250 -4 -254 -10 -4 -7 -247 -10 -696 -10 -453 0 -689 3 -689 10 0 6 -90 10
-249 10 -156 0 -252 -4 -256 -10 -3 -5 -35 -10 -71 -10 -36 0 -73 -4 -83 -10
-37 -19 -37 -140 0 -140 10 0 49 -11 87 -25 38 -14 83 -25 100 -25 17 0 34 -4
37 -10 3 -5 30 -10 60 -10 30 0 57 -4 60 -10 3 -5 30 -10 59 -10 28 0 56 -4
62 -9 5 -5 36 -12 69 -15 64 -5 278 -30 410 -47 44 -5 109 -12 145 -15 36 -3
74 -9 85 -14 11 -5 49 -11 85 -14 65 -5 158 -17 280 -35 80 -12 314 -40 395
-47 33 -3 64 -10 69 -15 6 -5 33 -9 61 -9 28 0 55 -4 61 -9 5 -5 36 -12 69
-15 82 -7 136 -16 160 -26 11 -5 40 -11 65 -14 54 -6 188 -31 250 -46 25 -6
62 -14 82 -17 21 -3 38 -9 38 -14 0 -5 12 -9 28 -9 15 0 52 -9 82 -20 30 -11
61 -20 68 -20 20 0 146 -52 150 -62 2 -4 12 -8 23 -8 10 0 19 -4 19 -10 0 -5
9 -10 20 -10 11 0 20 -4 20 -10 0 -5 6 -10 13 -10 18 -1 107 -68 114 -88 4 -9
10 -19 13 -22 4 -3 19 -27 33 -53 30 -53 36 -123 16 -186 -6 -20 -16 -52 -21
-71 -14 -47 -60 -144 -70 -148 -4 -2 -8 -12 -8 -23 0 -10 -3 -19 -7 -19 -5 0
-17 -18 -27 -40 -10 -22 -27 -48 -37 -59 -11 -11 -19 -24 -19 -29 0 -4 -18
-28 -40 -52 -21 -25 -72 -82 -112 -128 -95 -107 -484 -496 -638 -637 -66 -60
-156 -145 -200 -187 -45 -43 -98 -90 -118 -105 -20 -16 -65 -56 -100 -90 -34
-35 -68 -63 -73 -63 -6 0 -35 -25 -64 -55 -30 -30 -58 -55 -64 -55 -5 0 -39
-29 -75 -65 -36 -36 -69 -65 -74 -65 -4 0 -31 -21 -59 -47 -28 -27 -73 -64
-99 -83 -26 -19 -71 -56 -99 -82 -29 -27 -55 -48 -59 -48 -5 0 -20 -13 -34
-28 -15 -15 -45 -41 -67 -57 -22 -17 -49 -38 -59 -47 -11 -10 -23 -18 -28 -18
-4 0 -26 -18 -48 -40 -22 -22 -44 -40 -49 -40 -5 0 -16 -6 -23 -12 -7 -7 -31
-26 -53 -43 -22 -16 -49 -38 -60 -47 -27 -24 -103 -85 -160 -128 -26 -19 -63
-50 -83 -67 -20 -18 -39 -33 -43 -33 -4 0 -38 -29 -74 -65 -37 -36 -71 -65
-76 -65 -11 0 -119 -108 -119 -119 0 -4 -13 -22 -30 -39 -16 -18 -30 -34 -30
-37 0 -4 -11 -22 -24 -42 -14 -19 -34 -68 -46 -107 -12 -39 -26 -85 -31 -102
-5 -17 -9 -63 -9 -103 0 -40 -5 -82 -11 -93 -8 -15 -8 -26 0 -42 6 -11 12 -66
14 -121 5 -117 15 -165 48 -220 27 -46 117 -135 136 -135 7 0 13 -4 13 -10 0
-5 9 -10 19 -10 11 0 21 -4 23 -8 4 -9 98 -54 150 -71 21 -7 40 -17 43 -22 4
-5 14 -9 25 -9 10 0 35 -9 57 -19 21 -10 85 -33 143 -51 58 -18 123 -38 145
-46 23 -8 53 -14 67 -14 15 0 30 -4 33 -10 3 -5 21 -10 40 -10 19 0 36 -4 39
-9 3 -5 20 -11 38 -14 104 -18 135 -25 148 -31 8 -3 44 -11 80 -16 36 -5 90
-14 120 -20 30 -6 75 -13 100 -16 25 -3 54 -9 65 -14 11 -5 45 -11 75 -14 87
-8 166 -21 295 -51 33 -7 87 -19 120 -25 33 -6 74 -15 91 -21 17 -5 42 -9 57
-9 15 0 27 -4 27 -10 0 -5 18 -10 39 -10 22 0 43 -4 46 -10 3 -5 16 -10 27
-10 12 0 35 -4 52 -10 27 -8 96 -26 241 -62 22 -5 57 -12 78 -15 20 -3 40 -9
43 -14 3 -5 14 -9 26 -9 11 0 48 -9 82 -20 84 -27 214 -61 254 -67 18 -3 35
-9 38 -14 3 -5 16 -9 29 -9 13 0 27 -4 30 -10 3 -5 18 -10 32 -10 14 0 51 -8
82 -19 56 -18 126 -39 211 -61 25 -7 53 -16 62 -21 10 -5 26 -9 36 -9 10 0 22
-3 25 -7 4 -4 56 -23 115 -43 131 -45 165 -58 219 -82 24 -10 47 -18 53 -18 5
0 24 -9 42 -20 18 -11 56 -27 85 -36 29 -9 53 -21 53 -25 0 -5 9 -9 20 -9 11
0 20 -4 20 -10 0 -5 9 -10 20 -10 11 0 20 -3 20 -7 0 -5 10 -13 23 -19 19 -9
80 -44 166 -95 14 -8 35 -24 48 -36 13 -13 28 -23 33 -23 12 0 180 -167 180
-179 0 -5 6 -16 13 -23 15 -16 31 -52 47 -104 17 -57 1 -234 -21 -234 -5 0 -9
-7 -9 -15 0 -8 -4 -23 -9 -33 -21 -39 -51 -113 -51 -124 0 -7 -11 -33 -25 -57
-14 -23 -25 -49 -25 -57 0 -8 -4 -14 -10 -14 -5 0 -10 -7 -10 -15 0 -8 -4 -23
-9 -33 -5 -9 -90 -181 -190 -382 -100 -201 -205 -405 -232 -454 -27 -49 -49
-95 -49 -102 0 -7 -4 -14 -8 -16 -4 -1 -22 -34 -40 -72 -18 -37 -44 -83 -57
-100 -14 -18 -25 -40 -25 -49 0 -10 -4 -17 -10 -17 -5 0 -10 -9 -10 -19 0 -11
-3 -21 -7 -23 -5 -2 -26 -41 -48 -88 -22 -47 -43 -86 -47 -88 -5 -2 -8 -12 -8
-23 0 -10 -4 -19 -10 -19 -5 0 -10 -9 -10 -19 0 -11 -3 -21 -7 -23 -5 -2 -25
-41 -47 -88 -21 -47 -43 -93 -47 -102 -5 -10 -9 -24 -9 -32 0 -8 -4 -16 -8
-18 -8 -3 -63 -115 -90 -183 -9 -22 -24 -55 -34 -73 -10 -18 -18 -38 -18 -45
0 -7 -9 -32 -20 -55 -22 -44 -26 -124 -10 -166 7 -19 17 -26 35 -26 14 0 25 3
25 8 0 4 12 21 28 37 15 17 43 53 62 80 19 28 38 55 42 60 32 41 78 117 78
130 0 8 4 15 8 15 5 0 15 12 22 28 8 15 24 41 36 58 12 16 32 52 45 80 13 27
26 51 29 54 4 3 29 46 55 95 27 50 51 92 54 95 4 3 38 68 76 145 39 77 73 142
77 145 4 3 218 426 475 940 257 515 478 949 491 967 12 17 22 38 22 46 0 9 3
17 8 19 9 4 102 192 102 207 0 6 5 11 10 11 6 0 10 9 10 19 0 11 3 21 8 23 9
4 102 192 102 207 0 6 5 11 10 11 6 0 10 9 10 19 0 11 3 21 8 23 9 4 102 192
102 207 0 6 4 11 8 11 4 0 17 21 27 46 11 26 24 52 30 58 17 18 65 107 65 122
0 8 5 14 10 14 6 0 10 9 10 19 0 11 3 21 8 23 4 2 25 41 47 88 22 47 43 87 48
88 4 2 7 12 7 23 0 10 5 19 10 19 6 0 10 9 10 20 0 11 3 20 8 20 8 0 11 6 57
96 17 32 33 61 38 62 4 2 7 12 7 23 0 10 5 19 10 19 6 0 10 9 10 19 0 11 3 21
8 23 4 2 25 41 47 88 22 47 43 87 48 88 4 2 7 12 7 23 0 10 5 19 10 19 6 0 10
7 10 15 0 9 16 38 34 66 19 27 41 65 47 84 7 19 17 35 21 35 4 0 8 9 8 20 0
11 5 20 10 20 6 0 10 5 10 12 0 15 93 202 103 206 4 2 7 12 7 23 0 10 5 19 10
19 6 0 10 9 10 20 0 11 4 20 9 20 4 0 55 93 112 208 57 114 107 209 111 212 4
3 52 95 108 205 56 110 104 202 108 205 4 3 67 125 140 272 74 148 138 268
143 268 5 0 9 9 9 19 0 11 3 21 8 23 9 4 82 151 82 166 0 7 5 12 10 12 6 0 10
9 10 19 0 11 3 21 8 23 9 4 102 192 102 207 0 6 5 11 10 11 6 0 10 9 10 19 0
11 3 21 8 23 9 4 102 192 102 207 0 6 5 11 10 11 6 0 10 9 10 19 0 11 3 21 8
23 9 4 102 191 102 206 0 7 5 12 10 12 6 0 10 9 10 19 0 11 3 21 8 23 10 4
102 190 102 206 0 6 5 12 10 12 6 0 10 9 10 19 0 11 3 21 8 23 9 4 82 151 82
166 0 7 5 12 10 12 6 0 10 9 10 19 0 11 3 21 8 23 9 4 102 192 102 207 0 6 5
11 10 11 6 0 10 9 10 20 0 11 3 20 8 20 7 0 12 10 52 105 12 28 57 123 101
211 43 89 79 166 79 171 0 5 29 67 65 137 36 70 65 136 65 147 0 10 5 19 10
19 6 0 10 6 10 14 0 8 16 44 35 80 19 37 35 72 35 79 0 6 14 39 30 72 17 33
30 67 30 76 0 8 3 19 7 23 4 3 12 21 18 39 7 17 24 65 39 105 23 62 27 85 23
140 -8 108 -34 248 -58 310 -5 13 -9 34 -9 47 0 13 -4 27 -10 30 -5 3 -10 17
-10 30 0 13 -4 27 -10 30 -5 3 -10 19 -10 35 0 27 -4 40 -35 115 -7 17 -23 60
-36 98 -12 37 -26 67 -31 67 -4 0 -8 9 -8 20 0 11 -4 20 -10 20 -5 0 -10 13
-10 29 0 16 -4 31 -10 33 -15 5 -25 68 -10 68 13 0 218 -207 330 -333 36 -40
80 -84 99 -98 19 -13 57 -45 84 -71 26 -27 51 -48 55 -48 4 0 23 -14 42 -30
19 -16 39 -30 44 -30 5 0 16 -8 25 -18 9 -9 34 -30 56 -47 22 -16 42 -31 45
-34 3 -4 17 -12 33 -20 15 -8 27 -18 27 -23 0 -4 4 -8 10 -8 5 0 45 -25 89
-55 44 -30 84 -55 89 -55 6 0 12 -3 14 -8 3 -8 98 -72 138 -92 14 -7 27 -16
30 -19 3 -3 19 -13 35 -21 17 -8 32 -18 35 -21 3 -3 29 -18 58 -34 28 -15 52
-32 52 -37 0 -4 9 -8 20 -8 11 0 20 -4 20 -10 0 -5 9 -10 20 -10 11 0 20 -3
20 -8 0 -8 6 -11 96 -57 32 -16 61 -33 62 -37 2 -5 12 -8 23 -8 10 0 19 -4 19
-10 0 -5 9 -10 20 -10 11 0 20 -3 20 -8 0 -8 6 -12 116 -67 43 -22 81 -43 82
-47 2 -5 9 -8 16 -8 7 0 51 -20 98 -45 47 -25 95 -45 107 -45 11 0 21 -4 21
-10 0 -5 9 -10 20 -10 11 0 20 -4 20 -10 0 -5 5 -10 11 -10 11 0 101 -40 172
-76 16 -8 35 -14 43 -14 8 0 22 -4 32 -9 9 -5 28 -13 42 -19 14 -5 42 -17 62
-26 65 -29 216 -76 243 -76 14 0 25 -4 25 -9 0 -5 21 -12 48 -15 26 -2 64 -8
85 -12 22 -3 56 -1 82 7 66 19 63 50 -11 109 -30 25 -65 53 -77 64 -39 32
-105 76 -116 76 -6 0 -11 4 -11 8 0 4 -25 23 -56 42 -31 19 -62 39 -68 44 -6
6 -24 18 -41 26 -16 8 -32 18 -35 21 -3 4 -25 17 -50 29 -25 13 -59 33 -76 46
-17 13 -38 24 -47 24 -10 0 -17 3 -17 8 0 4 -10 12 -23 18 -12 6 -60 32 -106
58 -47 25 -90 46 -98 46 -7 0 -13 5 -13 10 0 6 -9 10 -20 10 -11 0 -20 4 -20
9 0 6 -44 31 -97 58 -54 26 -99 51 -101 56 -2 4 -12 7 -23 7 -10 0 -19 5 -19
10 0 6 -5 10 -11 10 -17 0 -202 93 -223 113 -11 9 -23 17 -26 17 -4 0 -44 21
-91 46 -46 25 -122 67 -169 92 -47 25 -87 48 -90 51 -3 3 -27 17 -55 31 -27
14 -54 29 -60 33 -22 17 -128 77 -136 77 -5 0 -9 5 -9 10 0 6 -5 10 -10 10
-13 0 -153 95 -170 115 -7 8 -17 15 -23 15 -5 0 -17 8 -26 18 -9 10 -34 31
-56 48 -49 36 -105 90 -105 102 0 5 -9 17 -21 28 -28 25 -69 107 -69 137 0 13
-5 28 -11 34 -12 12 -7 159 9 238 11 55 67 230 82 257 6 10 10 24 10 31 0 7
13 39 30 72 16 33 30 67 30 75 0 8 7 24 15 34 8 11 15 26 15 33 0 18 42 107
52 111 4 2 8 12 8 23 0 10 5 19 10 19 6 0 10 9 10 19 0 11 4 22 8 25 5 3 21
39 37 80 16 42 33 76 37 76 4 0 8 9 8 20 0 11 5 20 10 20 6 0 10 6 10 13 0 7
17 43 38 81 20 37 51 93 67 124 46 87 119 207 127 210 5 2 8 10 8 18 0 8 4 14
9 14 5 0 13 10 16 21 4 12 31 46 59 75 55 57 75 64 133 43 26 -8 39 -6 79 12
27 13 51 27 52 31 2 4 10 8 18 8 8 0 26 11 39 24 14 14 40 37 60 52 19 14 35
31 35 37 0 5 8 17 18 26 36 31 72 106 72 149 0 23 -5 42 -10 42 -24 0 -68 -31
-110 -78 -140 -155 -168 -183 -198 -199 -33 -18 -34 -18 -54 7 -14 18 -18 34
-14 60 11 73 20 106 37 138 11 18 19 39 19 47 0 16 106 226 118 234 5 4 18 28
31 55 13 28 34 64 47 81 13 18 24 39 24 48 0 10 3 17 8 17 4 0 25 28 47 63 22
34 42 64 45 67 10 9 131 253 146 295 16 46 18 111 5 119 -14 9 -93 15 -121 9z
m-4835 -4403 c139 -12 213 -24 226 -37 17 -17 1 -50 -29 -61 -58 -22 -162 -52
-181 -52 -11 0 -23 -4 -26 -10 -3 -5 -19 -10 -35 -10 -28 0 -103 -33 -127 -57
-23 -21 -15 -62 21 -97 39 -40 118 -86 146 -86 11 0 20 -4 20 -10 0 -5 6 -10
13 -10 7 0 31 -8 53 -19 21 -10 78 -31 127 -46 48 -15 87 -32 87 -36 0 -5 9
-9 20 -9 11 0 28 -4 38 -9 9 -5 35 -14 57 -19 70 -18 189 -53 230 -68 23 -8
53 -14 67 -14 15 0 30 -4 33 -10 3 -5 17 -10 30 -10 13 0 27 -4 30 -10 3 -5
21 -10 40 -10 19 0 36 -4 39 -9 3 -5 20 -11 38 -14 32 -5 162 -38 224 -57 17
-6 38 -10 47 -10 9 0 17 -4 17 -9 0 -5 17 -11 38 -14 38 -5 89 -18 152 -36 87
-25 212 -58 263 -68 15 -3 27 -9 27 -14 0 -5 12 -9 27 -9 15 0 40 -4 57 -9 17
-5 51 -15 76 -22 100 -26 273 -77 305 -89 11 -4 40 -14 65 -21 38 -11 120 -53
120 -62 0 -1 -29 -60 -65 -131 -36 -70 -65 -133 -65 -140 0 -6 -25 -60 -55
-119 -30 -59 -55 -116 -55 -127 0 -11 -4 -20 -10 -20 -5 0 -10 -9 -10 -20 0
-11 -4 -20 -10 -20 -5 0 -10 -5 -10 -12 0 -15 -73 -162 -82 -166 -5 -2 -8 -12
-8 -23 0 -10 -4 -19 -10 -19 -5 0 -10 -5 -10 -12 0 -15 -93 -202 -102 -206 -5
-2 -8 -12 -8 -23 0 -10 -4 -19 -10 -19 -5 0 -10 -6 -10 -14 0 -13 -48 -106
-60 -116 -3 -3 -71 -135 -151 -295 -79 -159 -147 -291 -151 -293 -5 -2 -8 -12
-8 -23 0 -10 -4 -19 -10 -19 -5 0 -10 -5 -10 -11 0 -13 -111 -240 -125 -255
-5 -6 -55 -100 -110 -210 -55 -109 -102 -201 -105 -204 -7 -7 -72 -129 -134
-255 -27 -55 -60 -114 -73 -131 -13 -17 -23 -38 -23 -47 0 -10 -4 -17 -10 -17
-5 0 -10 -9 -10 -19 0 -11 -3 -21 -7 -23 -5 -1 -30 -48 -57 -103 -27 -55 -57
-112 -67 -126 -25 -36 -109 -204 -109 -218 0 -6 -4 -11 -10 -11 -5 0 -10 -9
-10 -19 0 -11 -3 -21 -7 -23 -5 -1 -16 -19 -26 -38 -9 -19 -30 -55 -46 -80
-16 -25 -30 -53 -30 -62 -1 -10 -5 -18 -11 -18 -5 0 -10 -9 -10 -20 0 -11 -4
-20 -10 -20 -5 0 -10 -8 -11 -17 0 -10 -14 -38 -30 -63 -15 -25 -36 -62 -46
-82 -10 -21 -21 -38 -25 -38 -5 0 -8 -9 -8 -19 0 -11 -4 -21 -8 -23 -5 -1 -26
-34 -47 -73 -21 -38 -41 -72 -45 -75 -3 -3 -16 -27 -30 -55 -14 -27 -28 -52
-31 -55 -4 -3 -27 -43 -52 -90 -24 -47 -61 -114 -82 -150 -21 -36 -43 -75 -49
-87 -6 -13 -14 -23 -18 -23 -5 0 -8 -8 -8 -19 0 -28 -49 -44 -117 -38 -83 8
-132 18 -139 28 -3 5 -25 9 -49 9 -24 0 -47 5 -50 10 -3 6 -17 10 -30 10 -13
0 -26 4 -29 8 -3 5 -31 15 -63 22 -32 8 -82 24 -111 37 -29 13 -58 23 -65 23
-7 0 -32 9 -55 20 -22 11 -45 20 -51 20 -10 0 -143 69 -151 79 -3 3 -18 13
-35 21 -16 8 -32 17 -35 20 -3 3 -38 25 -77 48 -40 24 -83 53 -96 65 -12 12
-40 35 -62 51 -22 17 -47 38 -56 48 -9 10 -21 18 -26 18 -15 0 -231 229 -289
306 -16 21 -43 53 -59 69 -17 17 -46 56 -65 86 -19 29 -38 56 -42 57 -5 2 -8
7 -8 12 0 4 -18 37 -40 71 -22 35 -48 80 -58 99 -9 19 -20 37 -24 38 -5 2 -8
12 -8 22 0 10 -4 20 -8 22 -10 4 -102 191 -102 207 0 6 -4 11 -10 11 -5 0 -10
13 -10 29 0 16 -4 31 -9 33 -5 2 -30 66 -55 143 -26 77 -51 148 -56 157 -6 10
-10 30 -10 46 0 15 -4 32 -9 37 -5 6 -11 30 -14 55 -10 79 -24 165 -31 187
-11 34 -27 226 -32 373 -2 74 -9 144 -15 155 -17 33 -1 406 29 670 13 114 44
260 63 297 5 10 9 28 9 40 0 23 21 90 31 98 9 7 69 115 69 123 0 4 -7 7 -15 7
-16 0 -155 -133 -155 -148 0 -5 -12 -22 -27 -39 -37 -39 -49 -58 -79 -123 -13
-30 -33 -73 -43 -95 -38 -82 -79 -233 -94 -345 -23 -182 -9 -1221 18 -1315 4
-11 11 -47 16 -80 18 -113 21 -125 30 -131 5 -3 9 -18 9 -35 0 -16 4 -29 9
-29 5 0 11 -17 14 -37 8 -62 59 -217 78 -238 5 -5 9 -19 9 -32 0 -13 5 -23 10
-23 6 0 10 -9 10 -19 0 -11 3 -21 8 -23 4 -1 21 -32 39 -68 36 -72 62 -118 79
-136 6 -7 26 -36 45 -66 18 -29 41 -60 51 -69 10 -9 18 -21 18 -27 0 -5 12
-20 26 -33 14 -13 34 -37 44 -53 10 -16 86 -97 169 -181 83 -83 151 -155 151
-159 0 -4 12 -19 26 -34 83 -87 106 -159 59 -180 -32 -15 -161 -16 -170 -2 -3
5 -26 10 -50 10 -24 0 -47 5 -50 10 -3 6 -21 10 -40 10 -19 0 -36 4 -39 9 -3
5 -20 11 -38 14 -85 15 -140 28 -228 53 -52 14 -107 28 -123 31 -15 3 -30 9
-33 14 -3 5 -20 9 -39 9 -19 0 -37 5 -40 10 -3 6 -16 10 -27 10 -12 0 -35 4
-52 9 -17 5 -58 17 -91 26 -33 9 -74 21 -91 26 -17 5 -40 9 -52 9 -11 0 -24 5
-27 10 -3 6 -21 10 -40 10 -19 0 -36 4 -39 9 -3 5 -23 11 -43 14 -44 6 -84 14
-133 27 -60 15 -162 38 -225 50 -33 6 -74 15 -91 21 -17 5 -42 9 -55 9 -14 0
-29 4 -35 9 -5 5 -27 11 -49 14 -22 4 -62 11 -90 16 -27 6 -66 13 -85 16 -126
20 -218 38 -238 46 -13 5 -40 9 -62 9 -21 0 -42 5 -45 10 -3 6 -25 10 -49 10
-23 0 -46 4 -52 9 -5 5 -27 11 -49 14 -22 3 -62 10 -90 16 -27 6 -81 17 -120
25 -38 8 -90 20 -115 26 -25 6 -61 14 -80 16 -19 3 -44 9 -55 13 -11 5 -65 23
-120 41 -55 18 -120 43 -144 56 -24 13 -48 24 -52 24 -15 0 -129 119 -129 135
0 8 -4 15 -10 15 -5 0 -10 9 -10 20 0 11 -4 20 -9 20 -15 0 -23 59 -28 192
l-4 128 43 87 c23 49 48 94 55 101 7 7 13 17 13 22 0 11 130 140 141 140 5 0
19 11 33 25 14 14 27 25 30 25 8 0 130 93 134 102 2 5 10 8 18 8 8 0 14 3 14
8 0 4 17 18 38 32 20 13 51 36 68 50 31 26 49 39 144 109 30 22 65 49 77 60
12 12 26 21 31 21 5 0 17 9 26 19 9 10 37 31 62 47 24 15 44 32 44 36 0 4 7 8
15 8 8 0 15 4 15 8 0 4 20 21 44 36 25 16 53 37 62 47 9 10 21 19 27 19 5 0
17 8 26 18 9 9 34 31 56 47 22 16 46 35 53 42 7 7 17 13 22 13 5 0 19 10 32
23 13 12 41 35 63 52 56 41 55 40 107 82 26 21 68 54 93 73 26 19 63 50 83 68
20 17 39 32 44 32 4 0 28 20 52 45 25 25 50 45 56 45 5 0 28 18 50 40 22 22
44 40 50 40 5 0 36 26 67 58 32 32 67 64 78 70 27 14 189 170 448 429 226 226
302 307 320 338 6 11 26 36 44 55 18 19 33 39 33 43 0 4 16 23 35 43 19 19 35
38 35 43 0 4 14 22 30 39 17 18 30 35 30 38 0 4 15 28 34 54 19 27 44 65 55
87 26 47 44 77 52 83 3 3 8 14 12 25 3 11 17 54 32 95 15 41 31 109 37 150 24
176 0 457 -43 504 -5 6 -9 18 -9 27 0 26 -80 105 -115 113 -16 4 -46 10 -66
14 -39 8 -89 45 -108 81 -10 18 -9 27 4 47 8 13 22 24 29 24 8 0 16 5 18 11 2
6 25 15 51 20 26 5 68 14 95 20 26 6 73 13 105 16 31 3 57 9 57 14 0 5 37 9
83 9 46 0 87 4 93 9 9 10 85 15 409 29 247 11 1147 12 1270 2z m402 -181 c6
-6 46 -11 96 -10 124 1 202 -34 232 -105 18 -43 0 -95 -49 -146 -40 -43 -77
-55 -112 -39 -14 6 -36 11 -49 11 -13 0 -27 5 -30 10 -3 6 -15 10 -26 10 -11
0 -38 12 -62 27 -172 109 -179 117 -175 175 2 34 9 45 33 59 34 20 125 25 142
8z"/>
<path d="M5620 9410 c-8 -5 -39 -10 -68 -10 -29 0 -60 -4 -70 -9 -22 -11 -72
-26 -142 -42 -30 -6 -78 -23 -107 -36 -30 -12 -60 -23 -68 -23 -8 0 -15 -4
-15 -10 0 -5 -8 -10 -18 -10 -10 0 -50 -15 -88 -33 -38 -18 -85 -40 -104 -47
-47 -19 -283 -140 -290 -148 -3 -4 -18 -14 -35 -22 -16 -8 -34 -18 -40 -23 -5
-4 -35 -24 -65 -44 -30 -20 -56 -40 -58 -45 -2 -4 -12 -8 -23 -8 -10 0 -19 -4
-19 -8 0 -4 -12 -15 -27 -24 -16 -9 -45 -33 -67 -52 -21 -20 -42 -36 -47 -36
-10 0 -79 -72 -79 -84 0 -5 -8 -16 -18 -25 -23 -20 -72 -105 -72 -124 0 -22
44 -40 82 -34 75 13 98 20 98 28 0 5 6 9 13 9 16 0 151 71 155 82 2 4 10 8 18
8 8 0 14 4 14 8 0 4 34 25 75 47 41 21 75 42 75 47 0 4 9 8 19 8 11 0 21 3 23
8 2 4 26 18 53 32 28 14 52 27 55 30 11 13 103 60 116 60 8 0 14 3 14 8 0 4
10 12 23 18 12 6 60 32 106 58 47 25 90 46 98 46 7 0 13 5 13 10 0 6 9 10 19
10 11 0 21 3 23 8 4 10 49 36 128 75 36 18 67 35 68 40 2 4 12 7 23 7 10 0 19
4 19 9 0 5 35 27 78 50 42 22 90 49 107 58 42 25 105 89 105 107 0 30 -67 47
-100 26z"/>
<path d="M8966 8793 c-9 -24 31 -79 129 -177 47 -47 85 -90 85 -95 0 -12 91
-101 103 -101 11 0 137 -128 137 -140 0 -5 15 -24 33 -42 17 -18 45 -51 62
-73 16 -22 37 -48 46 -58 9 -9 22 -30 30 -45 8 -15 17 -29 20 -32 15 -12 148
-283 194 -395 7 -16 17 -43 24 -58 6 -15 11 -37 11 -47 0 -11 5 -20 10 -20 6
0 10 -8 10 -17 0 -9 4 -30 9 -47 5 -17 17 -58 26 -91 9 -33 21 -74 26 -91 5
-17 9 -40 9 -52 0 -11 5 -24 10 -27 6 -3 10 -30 10 -59 0 -28 4 -56 9 -62 5
-5 12 -34 15 -64 4 -30 11 -98 17 -150 19 -171 11 -662 -12 -684 -5 -6 -9 -38
-9 -72 0 -35 -4 -66 -10 -69 -5 -3 -10 -20 -10 -37 0 -17 -9 -58 -20 -92 -10
-33 -31 -100 -46 -148 -15 -49 -31 -88 -35 -88 -5 0 -9 -11 -9 -25 0 -14 -4
-33 -9 -43 -45 -89 -101 -212 -101 -221 0 -6 -4 -11 -10 -11 -5 0 -10 -4 -10
-9 0 -10 -52 -97 -98 -163 -17 -26 -32 -51 -32 -57 0 -6 -4 -11 -9 -11 -5 0
-12 -8 -15 -17 -3 -10 -24 -37 -46 -61 -22 -23 -40 -46 -40 -50 0 -5 -22 -32
-50 -61 -27 -29 -50 -56 -50 -60 0 -11 -145 -156 -189 -189 -19 -15 -53 -44
-74 -64 -22 -21 -44 -38 -50 -38 -5 0 -24 -16 -43 -35 -18 -19 -37 -35 -41
-35 -5 0 -18 -8 -29 -18 -11 -10 -44 -35 -74 -55 -30 -20 -59 -40 -65 -44 -5
-5 -23 -15 -40 -23 -16 -8 -32 -18 -35 -21 -7 -10 -246 -131 -310 -158 -167
-70 -169 -71 -190 -71 -11 0 -20 -4 -20 -10 0 -5 -8 -10 -18 -10 -10 0 -22 -4
-28 -9 -10 -10 -112 -36 -314 -82 -25 -6 -66 -13 -92 -16 -27 -3 -48 -9 -48
-14 0 -5 -37 -9 -83 -9 -46 0 -88 -5 -93 -10 -18 -18 -639 2 -658 21 -14 12
-383 12 -391 -1 -3 -5 -25 -10 -47 -10 -56 0 -108 -19 -135 -50 -13 -14 -23
-28 -23 -32 0 -8 19 -27 54 -56 34 -28 177 -82 219 -82 15 0 27 -4 27 -9 0 -5
17 -11 38 -14 20 -3 62 -11 92 -17 210 -41 294 -49 515 -50 235 0 354 11 540
51 28 6 67 13 88 16 20 3 40 9 43 14 3 5 16 9 29 9 13 0 27 5 30 10 3 6 16 10
28 10 12 0 47 9 77 21 30 11 80 30 110 41 30 11 79 31 108 44 29 13 55 24 58
24 24 0 327 163 354 190 3 3 19 12 35 20 17 8 65 39 107 67 42 29 79 53 82 53
3 0 25 18 47 40 23 22 45 40 50 40 5 0 24 16 43 35 20 19 40 35 45 35 13 0
371 359 371 372 0 5 20 29 45 54 25 24 45 49 45 55 0 6 8 19 18 28 9 9 30 34
47 56 16 22 31 42 34 45 4 3 12 17 20 33 8 15 18 27 23 27 4 0 8 4 8 10 0 5 9
20 20 32 24 28 90 137 90 149 0 5 5 9 10 9 6 0 10 9 10 20 0 11 3 20 8 20 8 0
11 6 57 96 17 32 33 61 38 62 4 2 7 12 7 23 0 10 5 19 10 19 6 0 10 7 10 15 0
8 4 23 10 33 27 48 80 177 80 193 0 11 5 19 10 19 6 0 10 9 10 20 0 18 7 38
38 109 16 37 40 127 49 179 3 18 9 35 14 38 5 3 9 25 9 49 0 24 5 47 10 50 6
3 10 25 10 49 0 23 4 46 9 52 5 5 12 34 15 64 4 30 11 93 17 140 25 193 3 688
-32 725 -5 5 -9 28 -9 51 0 24 -4 46 -10 49 -5 3 -10 19 -10 34 0 16 -7 44
-15 64 -8 19 -19 56 -25 82 -6 26 -19 65 -30 88 -11 22 -20 45 -20 49 0 5 -9
28 -20 50 -11 23 -20 46 -20 52 0 14 -112 238 -127 254 -7 7 -13 17 -13 21 0
9 -47 73 -80 108 -11 12 -20 26 -20 30 0 4 -14 24 -30 43 -16 19 -30 38 -30
42 0 16 -314 316 -364 348 -31 19 -56 38 -56 43 0 4 -9 7 -20 7 -11 0 -20 3
-20 8 0 4 -10 12 -23 18 -12 6 -51 27 -85 47 -35 21 -70 37 -78 37 -8 0 -14 5
-14 10 0 6 -9 10 -20 10 -11 0 -20 5 -20 10 0 6 -9 10 -19 10 -11 0 -23 5 -26
10 -10 16 -42 12 -49 -7z"/>
</g>
</svg>
