<?xml version="1.0" encoding="UTF-8" standalone="no"?>
<!DOCTYPE svg PUBLIC "-//W3C//DTD SVG 1.1//EN" "http://www.w3.org/Graphics/SVG/1.1/DTD/svg11.dtd">
<svg version="1.1" xmlns="http://www.w3.org/2000/svg" xmlns:xlink="http://www.w3.org/1999/xlink" preserveAspectRatio="xMidYMid meet" viewBox="0 0 225 265" width="225" height="265"><defs><path d="M44.65 161.48L185.58 161.48L185.58 224.73L44.65 224.73L44.65 161.48Z" id="a1ONxUvU2P"></path><path d="M17.15 14.59L203.66 14.59L203.66 187.62L17.15 187.62L17.15 14.59Z" id="aJA41Wiz8"></path><path d="M8.13 178.89C11.45 192.72 14.91 200.43 23.69 213.6C38.72 236.47 60.8 251.77 87.93 258.29C103.09 261.88 127.83 261.21 141.93 256.69C181.43 244.19 208.96 213.73 216.54 174.5C218 166.78 218.4 148.03 218.4 84.99C218.4 79.68 218.4 53.12 218.4 5.32L112 5.32L5.6 5.32L5.6 86.72C5.69 141.6 6.53 172.32 8.13 178.89ZM172.52 29.26C172.2 29.58 170.65 31.18 167.86 34.05L183.29 60.51L198.72 86.98L194.99 90.04L191.27 92.97C188.4 88.42 186.8 85.89 186.48 85.39C183.82 81.26 176.9 70.22 171.19 60.91C170.48 59.79 166.93 54.16 160.55 44.02L156.42 48.01L152.17 52.14C150.89 50.3 150.18 49.28 150.04 49.08C148.84 47.35 147.91 45.35 147.91 44.69C147.91 43.89 151.37 39.77 155.62 35.24C159.75 30.86 161.34 28.99 159.08 30.99C153.23 36.31 151.5 33.12 157.09 27.4C160.41 24.07 161.48 23.67 162.41 25.14C163.34 26.6 164.54 25.93 167.86 22.08C170.25 19.42 172.52 17.29 173.05 17.29C173.58 17.29 174.78 18.89 175.71 20.88C177.17 24.07 176.9 24.74 172.52 29.26ZM66.91 30.86C64.79 34.31 66.38 36.04 74.63 39.1C78.35 40.43 81.41 41.76 81.41 42.16C81.41 43.36 71.83 59.85 70.77 60.51C70.24 60.91 69.17 58.65 68.38 55.46C67.31 51.74 65.05 48.15 61.19 44.55C58.14 41.63 56.41 40.17 57.2 41.36C58.67 43.22 56.67 47.21 44.57 67.03C36.72 79.8 29.67 90.31 28.88 90.31C28.21 90.31 26.22 89.38 24.49 88.05C24.29 87.9 23.32 87.14 21.56 85.79C29.94 71.42 34.59 63.44 35.53 61.85C45.77 44.29 50.02 37.91 51.75 38.17C53.75 38.3 53.61 37.91 51.09 35.78C50.87 35.61 49.81 34.77 47.89 33.25C49.65 30.86 50.62 29.53 50.82 29.26C52.42 27.13 54.01 25.27 54.54 25.27C54.94 25.27 57.2 26.87 59.33 28.86C59.61 29.11 60.98 30.35 63.46 32.58C61.54 30.43 60.48 29.23 60.26 28.99C58.53 27 57.47 24.47 57.87 23.41C59.07 20.48 60.13 20.75 64.65 24.74C68.11 27.8 68.38 28.6 66.91 30.86ZM82.74 82.73C82.74 83.66 81.94 83.26 81.14 81.79C78.88 77.54 75.96 75.81 70.9 75.81C64.65 75.81 60.13 80.2 60.13 86.32C60.13 94.56 68.78 100.55 72.1 94.43C74.23 90.44 80.88 87.51 85.4 88.45C87.53 88.98 90.85 91.1 92.72 93.37C92.94 93.63 94.05 94.96 96.04 97.36C98.04 94.96 99.14 93.63 99.37 93.37C101.23 91.1 104.55 88.98 106.68 88.45C109.34 87.91 110.67 86.72 110.67 85.12C110.67 83.79 112.27 80.86 114.13 78.6C118.92 72.88 126.5 72.75 132.08 78.34C134.21 80.47 135.94 83.52 135.94 84.99C135.94 86.72 137.14 88.31 139.13 89.11C140.86 89.64 143.39 91.77 144.98 93.63C148.31 98.02 153.23 98.02 157.22 93.76C163.74 86.72 158.95 75.81 149.24 75.81C144.05 75.81 139.4 79.4 138.2 84.45C137.67 86.85 137.54 86.72 137.4 84.06C137.14 79.4 142.86 74.48 148.58 74.48C155.09 74.48 158.42 76.47 160.68 81.93C162.27 85.79 162.27 87.11 160.68 90.97C158.68 95.76 155.23 98.42 150.84 98.42C148.97 98.42 148.04 99.62 147.38 102.41C145.92 109.73 135.94 116.77 135.94 110.52C135.94 107.2 140.99 101.08 143.65 101.08C145.25 101.21 144.72 101.75 142.32 103.07C139 104.94 136.21 109.73 137.67 111.19C138.87 112.39 143.65 108.66 145.12 105.47C147.25 100.68 146.85 98.95 143.26 97.36C141.39 96.42 139.27 94.3 138.33 92.44C136.34 88.05 133.01 88.18 127.69 93.1C124.24 96.16 123.84 96.96 125.7 97.09C127.03 97.09 129.56 95.63 131.29 93.76C135.41 89.77 135.67 91.1 131.68 95.36C130.09 97.09 127.69 98.42 126.36 98.42C122.77 98.42 123.31 104.54 127.3 108.39C129.02 110.26 131.15 111.72 131.95 111.72C134.34 111.72 133.41 108.93 129.42 104.94C127.3 102.81 126.1 101.08 126.76 101.08C129.02 101.08 133.41 106.4 134.08 110.26C134.61 112.78 136.21 114.65 139.27 116.11C141.66 117.31 144.05 119.43 144.59 120.9C145.78 124.62 150.84 124.49 155.36 120.5C158.15 118.24 159.08 116.11 159.08 112.65C159.08 107.73 155.62 102.41 152.43 102.41C151.5 102.41 150.3 101.88 149.91 101.08C148.71 99.22 153.36 101.08 156.42 103.61C160.28 106.93 161.48 111.45 159.75 116.64C158.42 121.03 152.96 125.02 148.58 125.02C147.51 125.02 146.58 125.95 146.58 127.01C146.58 128.08 147.78 129.01 149.24 129.01C159.48 129.01 164.27 143.37 156.42 150.56C150.7 155.61 140.73 154.15 137.27 147.76C133.95 141.38 137.94 130.34 143.52 130.34C146.45 130.34 145.38 126.08 141.53 122.49C139.53 120.63 138.87 119.83 140.2 120.9C141.53 121.96 142.99 122.49 143.39 122.09C144.72 120.76 136.87 115.71 133.41 115.71C130.89 115.71 130.49 115.31 131.82 114.51C133.28 113.58 133.01 113.18 130.89 112.52C127.03 111.19 122.64 105.47 122.64 101.61C122.64 99.35 121.84 98.42 120.25 98.42C118.92 98.42 116.39 96.82 114.53 94.7C114.31 94.46 113.25 93.26 111.34 91.1C113.41 92.86 114.56 93.84 114.79 94.03C119.05 97.89 121.84 97.89 124.37 94.03C125.57 92.3 128.36 90.04 130.62 89.11C134.21 87.65 134.74 86.85 133.95 83.92C132.08 75.81 121.31 73.02 115.33 79.13C111.2 83.13 110.94 88.58 114.66 89.77C116.12 90.17 117.99 91.9 118.78 93.5C118.89 93.69 119.42 94.67 120.38 96.42C118.46 94.75 117.4 93.82 117.19 93.63C113.6 90.44 109.34 88.71 109.34 90.31C109.34 92.44 102.29 98.42 99.9 98.42C96.84 98.42 96.71 101.21 99.37 106.27C101.09 109.86 104.95 112.52 106.28 111.19C107.74 109.73 104.82 104.94 101.63 103.07C99.23 101.75 98.7 101.21 100.3 101.08C102.96 101.08 108.01 107.2 108.01 110.52C108.01 116.64 97.9 110.12 96.57 103.07C96.04 99.88 94.98 98.42 92.45 97.76C90.72 97.36 88.19 95.23 87 93.1C85.8 90.84 83.94 89.11 83.01 89.11C80.21 89.11 73.83 92.83 73.03 95.1C71.7 98.42 75.96 97.36 79.68 93.37C82.47 90.44 82.87 90.31 81.54 92.7C79.55 96.56 75.96 98.42 70.37 98.42C60.13 98.42 54.94 85.65 62.13 77.94C66.51 73.15 74.76 73.02 79.42 77.8C81.28 79.53 82.74 81.79 82.74 82.73ZM109.21 84.06C109.07 86.72 108.94 86.85 108.41 84.45C105.88 74.21 92.05 72.48 87 81.79C86.2 83.26 85.4 83.66 85.4 82.73C85.4 81.79 86.86 79.53 88.73 77.8C91.12 75.28 93.38 74.48 97.37 74.48C101.36 74.48 103.62 75.28 106.02 77.8C107.88 79.53 109.21 82.33 109.21 84.06ZM58.8 112.78C58.8 118.37 63.85 123.69 69.31 123.69C71.57 123.69 74.89 122.23 77.29 120.23C80.08 117.97 81.14 117.57 80.61 118.9C79.55 121.83 73.16 125.02 68.78 125.02C63.72 125.02 57.47 118.37 57.47 113.05C57.47 110.79 58.14 107.73 58.8 106.4C60.13 103.74 66.25 99.88 68.78 99.88C69.57 99.88 68.38 100.81 66.12 102.01C60.66 104.94 58.93 107.6 58.8 112.78ZM79.15 113.05C76.36 113.05 70.77 106 70.9 102.54C70.92 102.31 71.01 101.16 71.17 99.08C71.49 101.08 71.67 102.19 71.7 102.41C71.97 104.27 74.1 107.33 76.49 109.33C78.75 111.45 79.95 113.05 79.15 113.05ZM109.87 112.65C108.54 111.32 112.13 103.74 114.79 102.41C118.65 100.28 118.65 100.81 114.53 104.94C112.4 107.07 110.67 109.46 110.67 110.26C110.67 114.91 119.85 106.93 120.11 102.14C120.25 99.75 120.38 99.62 120.91 101.48C121.31 102.81 120.51 105.34 119.32 107.2C117.05 110.66 111.2 113.98 109.87 112.65ZM81.94 110.39C82.47 112.92 82.21 112.65 80.75 109.46C79.68 107.2 77.42 104.27 75.82 103.21C74.23 102.01 73.43 101.08 74.23 101.08C75.03 101.08 76.89 102.41 78.35 104.01C79.81 105.73 81.41 108.53 81.94 110.39ZM86.6 106.93C85.27 109.19 84.07 110.26 84.07 109.19C84.07 106.8 89.26 101.08 91.25 101.21C92.05 101.21 91.92 101.61 90.99 102.01C89.92 102.41 88.06 104.54 86.6 106.93ZM85.8 112.92C83.94 112.92 83.8 112.65 85.4 112.12C88.46 110.92 93.38 106.13 93.38 104.14C93.38 103.21 93.65 102.41 94.05 102.41C94.44 102.41 94.71 103.34 94.71 104.41C94.71 107.33 88.73 113.05 85.8 112.92ZM79.81 115.31C78.88 114.91 79.55 114.65 81.41 114.65C83.27 114.65 83.94 114.91 83.14 115.31C82.21 115.58 80.61 115.58 79.81 115.31ZM90.32 123.42C86.07 121.3 83.94 117.97 85.53 116.38C86.46 115.44 88.19 116.51 90.72 119.3C90.98 119.58 92.26 121 94.58 123.56C97.29 120.84 98.8 119.34 99.1 119.04C102.16 115.98 104.95 114.38 107.48 114.38C107.72 114.38 108.91 114.38 111.07 114.38L105.62 119.7C98.97 124.13 93.87 125.37 90.32 123.42ZM70.9 121.43C70.11 120.9 74.89 115.71 76.22 115.71C76.89 115.71 75.96 117.04 74.36 118.77C72.77 120.5 71.17 121.7 70.9 121.43ZM117.99 122.23C117.45 123.16 118.92 123.69 121.98 123.69C125.43 123.69 127.69 122.76 129.96 120.23C131.82 118.24 133.28 117.31 133.28 118.1C133.28 120.76 126.23 125.02 121.84 125.02C116.92 125.02 109.61 119.7 111.2 117.31C112.53 115.04 113.86 115.31 116.52 118.24C117.85 119.7 118.52 121.56 117.99 122.23ZM122.77 121.43C121.98 120.9 126.76 115.71 128.09 115.71C128.76 115.71 127.83 117.04 126.23 118.77C124.64 120.5 123.04 121.7 122.77 121.43ZM82.08 143.51C80.08 151.75 71.44 156.01 64.25 152.42C56.27 148.29 54.94 139.25 61.33 132.87C63.46 130.74 65.98 129.01 67.05 129.01C67.98 129.14 67.18 129.94 65.18 131.14C57.47 135.26 56.41 144.04 63.06 149.63C67.71 153.48 73.16 153.48 77.55 149.49C80.21 147.1 82.08 140.98 80.48 139.78C79.95 139.38 79.42 138.19 79.42 137.12C79.42 135 72.5 129.41 71.3 130.74C70.9 131.14 71.97 133 73.83 134.86C75.82 136.72 76.76 138.32 76.09 138.32C74.1 138.32 69.44 131.4 69.44 128.48C69.44 127.01 69.97 126.35 70.5 127.01C71.04 127.81 73.03 129.14 75.03 129.94C79.68 132.07 83.27 138.85 82.08 143.51ZM113.2 137.92C109.61 138.85 110.01 144.04 113.86 148.43C120.11 155.88 133.28 151.09 133.28 141.51C133.28 139.65 132.75 138.59 131.95 138.99C131.29 139.38 131.02 138.99 131.42 137.79C132.35 135.53 127.56 130.34 124.5 130.34C122.64 130.34 122.51 130.61 124.1 132.6C125.17 133.93 126.9 135.79 127.96 136.72C129.69 138.19 129.42 138.19 127.03 136.99C125.3 136.19 123.44 134.46 122.64 133C121.04 130.07 120.78 124.89 122.37 127.15C122.91 127.95 124.64 129.01 126.23 129.54C130.22 130.74 134.61 136.59 134.61 140.45C134.61 150.95 122.77 157.34 114.53 151.22C111.6 148.96 109.34 144.44 109.34 140.58C109.34 136.46 114.39 129.94 116.79 130.87C117.99 131.4 118.65 130.61 118.78 128.61C118.92 126.35 119.05 126.22 119.58 128.08C119.98 129.41 119.18 132.07 117.99 133.93C116.79 135.79 114.53 137.66 113.2 137.92ZM86.2 138.99C87.95 136.91 88.93 135.76 89.12 135.53C90.72 133.67 92.05 131.27 92.18 130.21C92.18 128.74 92.45 128.74 92.98 130.21C93.38 131.14 92.05 133.53 89.92 135.53C89.43 135.99 88.18 137.14 86.2 138.99ZM96.31 153.62C90.06 153.62 84.07 148.96 84.07 144.44C84.2 142.18 84.6 142.58 85.93 145.77C88.33 151.35 94.58 153.88 100.03 151.62C104.82 149.63 106.68 146.7 106.68 140.98C106.68 136.99 101.76 130.34 98.7 130.34C96.17 130.34 97.37 132.73 101.76 136.32C104.02 138.32 105.08 139.52 104.02 138.99C100.56 137.12 96.04 132.6 96.04 130.74C96.04 127.95 99.5 128.74 103.89 132.47C112.4 139.65 107.35 153.62 96.31 153.62ZM85 138.32C84.47 139.92 84.2 139.78 84.2 137.92C84.07 136.72 85.27 134.46 86.73 133C90.32 129.41 91.78 129.67 88.46 133.27C87 135 85.4 137.26 85 138.32ZM148.04 171.84C149.2 171.81 154.96 171.68 165.33 171.44C165.09 173.67 164.96 174.91 164.93 175.16C164.54 178.62 163.47 179.28 147.25 185C146.09 185.42 140.33 187.5 129.96 191.25L129.56 198.3L129.16 205.49L136.07 210.14L142.99 214.8C133.25 215.03 127.84 215.17 126.76 215.19C117.99 215.33 103.49 215.33 94.71 215.19C93.65 215.17 88.38 215.03 78.88 214.8L85.8 210.27L92.72 205.62L92.05 198.3L91.39 190.86L74.1 181.55L56.81 172.24C66.78 172 72.32 171.86 73.43 171.84C82.47 171.7 90.59 170.91 91.25 170.24C93.38 168.11 130.62 168.51 130.62 170.51C130.62 171.84 134.74 172.1 148.04 171.84Z" id="b2cGq4VLWA"></path><path d="M160.55 43.22C162.38 41.71 163.4 40.87 163.6 40.7C166.4 38.3 167.2 37.24 166.13 37.24C165.87 37.24 164.54 38.57 163.07 40.17C162.74 40.57 161.89 41.59 160.55 43.22Z" id="a2dPb8cxWJ"></path><path d="M100.43 97.09C102.42 97.09 108.81 90.84 107.88 89.77C107.48 89.51 105.35 90.44 102.96 91.77C98.57 94.43 97.37 97.09 100.43 97.09Z" id="m6DmFG1WH"></path><path d="M91.32 95.49C93.71 97.09 93.85 96.96 92.65 94.7C91.05 91.77 86.93 89.64 87.99 92.17C88.26 93.1 89.86 94.56 91.32 95.49Z" id="eFYW2ZMM"></path><path d="M144.98 96.42C145.92 95.49 141.13 90.44 139.53 90.44C138.73 90.44 139.53 91.9 141.26 93.76C142.99 95.63 144.72 96.82 144.98 96.42Z" id="bM1aZ9JO9"></path><path d="M140.86 137.12C138.07 138.59 138.07 138.45 141.13 135.13C142.99 133.27 143.79 131.67 142.99 131.67C140.2 131.67 137.27 136.72 137.27 141.38C137.27 153.22 152.43 156.81 157.89 146.43C160.41 141.38 159.35 136.46 154.96 133C150.57 129.54 145.65 129.54 144.59 133C144.19 134.46 142.46 136.32 140.86 137.12Z" id="a1Yk4rfGP"></path><path d="M101.23 122.49C104.29 120.76 107.48 115.71 105.48 115.71C104.82 115.71 102.42 117.17 100.43 118.9C96.31 122.49 96.84 124.75 101.23 122.49Z" id="b7zHNt7Llm"></path><path d="M91.12 122.36C91.92 122.36 91.39 121.16 90.06 119.7C88.73 118.24 87 117.04 86.33 117.04C85.53 117.04 86.07 118.24 87.4 119.7C88.73 121.16 90.45 122.36 91.12 122.36Z" id="bXnx6UGWt"></path><path d="M117.32 121.3C117.32 120.63 116.66 119.57 115.72 118.64C113.6 116.51 111.87 116.64 112.8 118.9C113.6 121.03 117.32 122.89 117.32 121.3Z" id="g2UgS3L4Tg"></path><path d="M113.06 136.99C114.39 136.99 117.32 134.2 117.32 132.73C117.32 130.61 114.79 131.67 113.33 134.33C112.53 135.79 112.4 136.99 113.06 136.99Z" id="b4uUTVXG3N"></path></defs><g><g><g><use xlink:href="#a1ONxUvU2P" opacity="1" fill="#e5dc04" fill-opacity="1"></use></g><g><use xlink:href="#aJA41Wiz8" opacity="1" fill="#e5dc04" fill-opacity="1"></use></g><g><use xlink:href="#b2cGq4VLWA" opacity="1" fill="#0071bc" fill-opacity="1"></use><g><use xlink:href="#b2cGq4VLWA" opacity="1" fill-opacity="0" stroke="#000000" stroke-width="1" stroke-opacity="0"></use></g></g><g><use xlink:href="#a2dPb8cxWJ" opacity="1" fill="#0071bc" fill-opacity="1"></use><g><use xlink:href="#a2dPb8cxWJ" opacity="1" fill-opacity="0" stroke="#000000" stroke-width="1" stroke-opacity="0"></use></g></g><g><use xlink:href="#m6DmFG1WH" opacity="1" fill="#0071bc" fill-opacity="1"></use><g><use xlink:href="#m6DmFG1WH" opacity="1" fill-opacity="0" stroke="#000000" stroke-width="1" stroke-opacity="0"></use></g></g><g><use xlink:href="#eFYW2ZMM" opacity="1" fill="#0071bc" fill-opacity="1"></use><g><use xlink:href="#eFYW2ZMM" opacity="1" fill-opacity="0" stroke="#000000" stroke-width="1" stroke-opacity="0"></use></g></g><g><use xlink:href="#bM1aZ9JO9" opacity="1" fill="#0071bc" fill-opacity="1"></use><g><use xlink:href="#bM1aZ9JO9" opacity="1" fill-opacity="0" stroke="#000000" stroke-width="1" stroke-opacity="0"></use></g></g><g><use xlink:href="#a1Yk4rfGP" opacity="1" fill="#0071bc" fill-opacity="1"></use><g><use xlink:href="#a1Yk4rfGP" opacity="1" fill-opacity="0" stroke="#000000" stroke-width="1" stroke-opacity="0"></use></g></g><g><use xlink:href="#b7zHNt7Llm" opacity="1" fill="#0071bc" fill-opacity="1"></use><g><use xlink:href="#b7zHNt7Llm" opacity="1" fill-opacity="0" stroke="#000000" stroke-width="1" stroke-opacity="0"></use></g></g><g><use xlink:href="#bXnx6UGWt" opacity="1" fill="#0071bc" fill-opacity="1"></use><g><use xlink:href="#bXnx6UGWt" opacity="1" fill-opacity="0" stroke="#000000" stroke-width="1" stroke-opacity="0"></use></g></g><g><use xlink:href="#g2UgS3L4Tg" opacity="1" fill="#0071bc" fill-opacity="1"></use><g><use xlink:href="#g2UgS3L4Tg" opacity="1" fill-opacity="0" stroke="#000000" stroke-width="1" stroke-opacity="0"></use></g></g><g><use xlink:href="#b4uUTVXG3N" opacity="1" fill="#0071bc" fill-opacity="1"></use><g><use xlink:href="#b4uUTVXG3N" opacity="1" fill-opacity="0" stroke="#000000" stroke-width="1" stroke-opacity="0"></use></g></g></g></g></svg>