<?xml version="1.0" encoding="UTF-8" standalone="no"?>
<!DOCTYPE svg PUBLIC "-//W3C//DTD SVG 1.1//EN" "http://www.w3.org/Graphics/SVG/1.1/DTD/svg11.dtd">
<svg version="1.1" xmlns="http://www.w3.org/2000/svg" xmlns:xlink="http://www.w3.org/1999/xlink" preserveAspectRatio="xMidYMid meet" viewBox="0 0 640 640" width="640" height="640"><defs><path d="M0 0L640 0L640 640L0 640L0 0Z" id="a3gQQrQxN6"></path><path d="M160 10L180 10L180 30L160 30L160 10Z" id="b5P21VWF3K"></path><path d="M250 10L270 10L270 30L250 30L250 10Z" id="a1nVWlay8o"></path><path d="M130 10L150 10L150 30L130 30L130 10Z" id="a76vk5Or2J"></path><path d="M280 10L300 10L300 30L280 30L280 10Z" id="cf5INS2fU"></path><path d="M70 10L90 10L90 30L70 30L70 10Z" id="deOzGSM5N"></path><path d="M100 10L120 10L120 30L100 30L100 10Z" id="a29AoU2ko7"></path><path d="M10 10L30 10L30 30L10 30L10 10Z" id="a3iAii4Zf"></path><path d="M40 10L60 10L60 30L40 30L40 10Z" id="bAKB80RO"></path><path d="M490 10L510 10L510 30L490 30L490 10Z" id="l2nkeEA375"></path><path d="M520 10L540 10L540 30L520 30L520 10Z" id="bP1JrBSYV"></path><path d="M460 10L480 10L480 30L460 30L460 10Z" id="b10jpwm7hY"></path><path d="M550 10L570 10L570 30L550 30L550 10Z" id="a3ryQjtLky"></path><path d="M430 10L450 10L450 30L430 30L430 10Z" id="d1uAssceiY"></path><path d="M580 10L600 10L600 30L580 30L580 10Z" id="a4p7BBbBQZ"></path><path d="M370 10L390 10L390 30L370 30L370 10Z" id="b4txVPRupj"></path><path d="M400 10L420 10L420 30L400 30L400 10Z" id="aqzKBXFlc"></path><path d="M310 10L330 10L330 30L310 30L310 10Z" id="b1F7j7oYu"></path><path d="M340 10L360 10L360 30L340 30L340 10Z" id="doUBGb7ee"></path><path d="M610 10L630 10L630 30L610 30L610 10Z" id="bv9NRlPI"></path><path d="M190 610L210 610L210 630L190 630L190 610Z" id="b1IoFIgGPR"></path><path d="M220 610L240 610L240 630L220 630L220 610Z" id="a29vMJxAhB"></path><path d="M160 610L180 610L180 630L160 630L160 610Z" id="d5HdAO5Rcc"></path><path d="M250 610L270 610L270 630L250 630L250 610Z" id="d12XQbTzer"></path><path d="M130 610L150 610L150 630L130 630L130 610Z" id="j28PEpbocS"></path><path d="M280 610L300 610L300 630L280 630L280 610Z" id="c4ol9XVP8h"></path><path d="M70 610L90 610L90 630L70 630L70 610Z" id="bW6M4RNqS"></path><path d="M100 610L120 610L120 630L100 630L100 610Z" id="iaocXdxWt"></path><path d="M10 610L30 610L30 630L10 630L10 610Z" id="aQGwhQkRF"></path><path d="M40 610L60 610L60 630L40 630L40 610Z" id="bfLbpfxXV"></path><path d="M490 610L510 610L510 630L490 630L490 610Z" id="b34BlEwsbH"></path><path d="M520 610L540 610L540 630L520 630L520 610Z" id="a2Nv9qqd7"></path><path d="M460 610L480 610L480 630L460 630L460 610Z" id="k6vyvzFJKV"></path><path d="M550 610L570 610L570 630L550 630L550 610Z" id="i2rgXHDZbE"></path><path d="M430 610L450 610L450 630L430 630L430 610Z" id="a7bLIZG0MI"></path><path d="M580 610L600 610L600 630L580 630L580 610Z" id="cketbukao"></path><path d="M370 610L390 610L390 630L370 630L370 610Z" id="j1AeqiW9Hv"></path><path d="M400 610L420 610L420 630L400 630L400 610Z" id="a3Rp4ggBgz"></path><path d="M310 610L330 610L330 630L310 630L310 610Z" id="aN9msU0rN"></path><path d="M340 610L360 610L360 630L340 630L340 610Z" id="b7RFQXvM2"></path><path d="M610 610L630 610L630 630L610 630L610 610Z" id="b74bNTbufN"></path><path d="M220 10L240 10L240 30L220 30L220 10Z" id="a6nKUnLJLZ"></path><path d="M190 10L210 10L210 30L190 30L190 10Z" id="b29KEi46VD"></path><path d="M10 580L30 580L30 600L10 600L10 580Z" id="feBzMps4T"></path><path d="M30 550L10 550L10 570L30 570L30 550Z" id="flk0LiCrM"></path><path d="M30 520L10 520L10 540L30 540L30 520Z" id="cimZMPshN"></path><path d="M30 490L10 490L10 510L30 510L30 490Z" id="a1inyMr8s"></path><path d="M30 460L10 460L10 480L30 480L30 460Z" id="a2xVMo6Z3e"></path><path d="M30 430L10 430L10 450L30 450L30 430Z" id="b4d43xRjHo"></path><path d="M30 400L10 400L10 420L30 420L30 400Z" id="kxKIOR32V"></path><path d="M10 370L30 370L30 390L10 390L10 370Z" id="cqH2Xi2Hc"></path><path d="M10 340L30 340L30 360L10 360L10 340Z" id="c1An9TRAAr"></path><path d="M30 310L10 310L10 330L30 330L30 310Z" id="c2Uz8EaqFY"></path><path d="M30 280L10 280L10 300L30 300L30 280Z" id="a12bDq45nb"></path><path d="M30 250L10 250L10 270L30 270L30 250Z" id="aHcd8kLu"></path><path d="M30 220L10 220L10 240L30 240L30 220Z" id="a2bDhI2sxq"></path><path d="M30 190L10 190L10 210L30 210L30 190Z" id="a1hxjoCO4m"></path><path d="M30 160L10 160L10 180L30 180L30 160Z" id="b8HjAATkcB"></path><path d="M30 130L10 130L10 150L30 150L30 130Z" id="dAj1JBMIm"></path><path d="M30 100L10 100L10 120L30 120L30 100Z" id="cdNtL6Z2W"></path><path d="M30 70L10 70L10 90L30 90L30 70Z" id="c3fOIDGqki"></path><path d="M30 40L10 40L10 60L30 60L30 40Z" id="a7moomfo4n"></path><path d="M610 580L630 580L630 600L610 600L610 580Z" id="iS6s5Ldbo"></path><path d="M630 550L610 550L610 570L630 570L630 550Z" id="afbqc7YOx"></path><path d="M630 520L610 520L610 540L630 540L630 520Z" id="a7ZcHoOpH"></path><path d="M630 490L610 490L610 510L630 510L630 490Z" id="a2Uoe2odA"></path><path d="M630 460L610 460L610 480L630 480L630 460Z" id="b2FVEerkAH"></path><path d="M630 430L610 430L610 450L630 450L630 430Z" id="f26bgfRR10"></path><path d="M630 400L610 400L610 420L630 420L630 400Z" id="d17YTWzTkJ"></path><path d="M610 370L630 370L630 390L610 390L610 370Z" id="a1PqujP382"></path><path d="M610 340L630 340L630 360L610 360L610 340Z" id="d1kj2Z0Jzs"></path><path d="M630 310L610 310L610 330L630 330L630 310Z" id="fmT9cc5DW"></path><path d="M630 280L610 280L610 300L630 300L630 280Z" id="cQelZbCtG"></path><path d="M630 250L610 250L610 270L630 270L630 250Z" id="h17JS36ws5"></path><path d="M630 220L610 220L610 240L630 240L630 220Z" id="j4HwIxxBrH"></path><path d="M630 190L610 190L610 210L630 210L630 190Z" id="alhoxJYaJ"></path><path d="M630 160L610 160L610 180L630 180L630 160Z" id="b2x8Z5Gjnp"></path><path d="M630 130L610 130L610 150L630 150L630 130Z" id="a5afQqEGS7"></path><path d="M630 100L610 100L610 120L630 120L630 100Z" id="a6CXSGMh5X"></path><path d="M630 70L610 70L610 90L630 90L630 70Z" id="a13gI979BR"></path><path d="M630 40L610 40L610 60L630 60L630 40Z" id="b4hql8mhji"></path></defs><g><g><g><use xlink:href="#a3gQQrQxN6" opacity="1" fill="#212318" fill-opacity="0.35"></use></g><g><use xlink:href="#b5P21VWF3K" opacity="1" fill="#a9a9a9" fill-opacity="1"></use><g><use xlink:href="#b5P21VWF3K" opacity="1" fill-opacity="0" stroke="#808080" stroke-width="5" stroke-opacity="1"></use></g></g><g><use xlink:href="#a1nVWlay8o" opacity="1" fill="#a9a9a9" fill-opacity="1"></use><g><use xlink:href="#a1nVWlay8o" opacity="1" fill-opacity="0" stroke="#808080" stroke-width="5" stroke-opacity="1"></use></g></g><g><use xlink:href="#a76vk5Or2J" opacity="1" fill="#a9a9a9" fill-opacity="1"></use><g><use xlink:href="#a76vk5Or2J" opacity="1" fill-opacity="0" stroke="#808080" stroke-width="5" stroke-opacity="1"></use></g></g><g><use xlink:href="#cf5INS2fU" opacity="1" fill="#a9a9a9" fill-opacity="1"></use><g><use xlink:href="#cf5INS2fU" opacity="1" fill-opacity="0" stroke="#808080" stroke-width="5" stroke-opacity="1"></use></g></g><g><use xlink:href="#deOzGSM5N" opacity="1" fill="#a9a9a9" fill-opacity="1"></use><g><use xlink:href="#deOzGSM5N" opacity="1" fill-opacity="0" stroke="#808080" stroke-width="5" stroke-opacity="1"></use></g></g><g><use xlink:href="#a29AoU2ko7" opacity="1" fill="#a9a9a9" fill-opacity="1"></use><g><use xlink:href="#a29AoU2ko7" opacity="1" fill-opacity="0" stroke="#808080" stroke-width="5" stroke-opacity="1"></use></g></g><g><use xlink:href="#a3iAii4Zf" opacity="1" fill="#a9a9a9" fill-opacity="1"></use><g><use xlink:href="#a3iAii4Zf" opacity="1" fill-opacity="0" stroke="#808080" stroke-width="5" stroke-opacity="1"></use></g></g><g><use xlink:href="#bAKB80RO" opacity="1" fill="#a9a9a9" fill-opacity="1"></use><g><use xlink:href="#bAKB80RO" opacity="1" fill-opacity="0" stroke="#808080" stroke-width="5" stroke-opacity="1"></use></g></g><g><use xlink:href="#l2nkeEA375" opacity="1" fill="#a9a9a9" fill-opacity="1"></use><g><use xlink:href="#l2nkeEA375" opacity="1" fill-opacity="0" stroke="#808080" stroke-width="5" stroke-opacity="1"></use></g></g><g><use xlink:href="#bP1JrBSYV" opacity="1" fill="#a9a9a9" fill-opacity="1"></use><g><use xlink:href="#bP1JrBSYV" opacity="1" fill-opacity="0" stroke="#808080" stroke-width="5" stroke-opacity="1"></use></g></g><g><use xlink:href="#b10jpwm7hY" opacity="1" fill="#a9a9a9" fill-opacity="1"></use><g><use xlink:href="#b10jpwm7hY" opacity="1" fill-opacity="0" stroke="#808080" stroke-width="5" stroke-opacity="1"></use></g></g><g><use xlink:href="#a3ryQjtLky" opacity="1" fill="#a9a9a9" fill-opacity="1"></use><g><use xlink:href="#a3ryQjtLky" opacity="1" fill-opacity="0" stroke="#808080" stroke-width="5" stroke-opacity="1"></use></g></g><g><use xlink:href="#d1uAssceiY" opacity="1" fill="#a9a9a9" fill-opacity="1"></use><g><use xlink:href="#d1uAssceiY" opacity="1" fill-opacity="0" stroke="#808080" stroke-width="5" stroke-opacity="1"></use></g></g><g><use xlink:href="#a4p7BBbBQZ" opacity="1" fill="#a9a9a9" fill-opacity="1"></use><g><use xlink:href="#a4p7BBbBQZ" opacity="1" fill-opacity="0" stroke="#808080" stroke-width="5" stroke-opacity="1"></use></g></g><g><use xlink:href="#b4txVPRupj" opacity="1" fill="#a9a9a9" fill-opacity="1"></use><g><use xlink:href="#b4txVPRupj" opacity="1" fill-opacity="0" stroke="#808080" stroke-width="5" stroke-opacity="1"></use></g></g><g><use xlink:href="#aqzKBXFlc" opacity="1" fill="#a9a9a9" fill-opacity="1"></use><g><use xlink:href="#aqzKBXFlc" opacity="1" fill-opacity="0" stroke="#808080" stroke-width="5" stroke-opacity="1"></use></g></g><g><use xlink:href="#b1F7j7oYu" opacity="1" fill="#a9a9a9" fill-opacity="1"></use><g><use xlink:href="#b1F7j7oYu" opacity="1" fill-opacity="0" stroke="#808080" stroke-width="5" stroke-opacity="1"></use></g></g><g><use xlink:href="#doUBGb7ee" opacity="1" fill="#a9a9a9" fill-opacity="1"></use><g><use xlink:href="#doUBGb7ee" opacity="1" fill-opacity="0" stroke="#808080" stroke-width="5" stroke-opacity="1"></use></g></g><g><use xlink:href="#bv9NRlPI" opacity="1" fill="#a9a9a9" fill-opacity="1"></use><g><use xlink:href="#bv9NRlPI" opacity="1" fill-opacity="0" stroke="#808080" stroke-width="5" stroke-opacity="1"></use></g></g><g><use xlink:href="#b1IoFIgGPR" opacity="1" fill="#a9a9a9" fill-opacity="1"></use><g><use xlink:href="#b1IoFIgGPR" opacity="1" fill-opacity="0" stroke="#808080" stroke-width="5" stroke-opacity="1"></use></g></g><g><use xlink:href="#a29vMJxAhB" opacity="1" fill="#a9a9a9" fill-opacity="1"></use><g><use xlink:href="#a29vMJxAhB" opacity="1" fill-opacity="0" stroke="#808080" stroke-width="5" stroke-opacity="1"></use></g></g><g><use xlink:href="#d5HdAO5Rcc" opacity="1" fill="#a9a9a9" fill-opacity="1"></use><g><use xlink:href="#d5HdAO5Rcc" opacity="1" fill-opacity="0" stroke="#808080" stroke-width="5" stroke-opacity="1"></use></g></g><g><use xlink:href="#d12XQbTzer" opacity="1" fill="#a9a9a9" fill-opacity="1"></use><g><use xlink:href="#d12XQbTzer" opacity="1" fill-opacity="0" stroke="#808080" stroke-width="5" stroke-opacity="1"></use></g></g><g><use xlink:href="#j28PEpbocS" opacity="1" fill="#a9a9a9" fill-opacity="1"></use><g><use xlink:href="#j28PEpbocS" opacity="1" fill-opacity="0" stroke="#808080" stroke-width="5" stroke-opacity="1"></use></g></g><g><use xlink:href="#c4ol9XVP8h" opacity="1" fill="#a9a9a9" fill-opacity="1"></use><g><use xlink:href="#c4ol9XVP8h" opacity="1" fill-opacity="0" stroke="#808080" stroke-width="5" stroke-opacity="1"></use></g></g><g><use xlink:href="#bW6M4RNqS" opacity="1" fill="#a9a9a9" fill-opacity="1"></use><g><use xlink:href="#bW6M4RNqS" opacity="1" fill-opacity="0" stroke="#808080" stroke-width="5" stroke-opacity="1"></use></g></g><g><use xlink:href="#iaocXdxWt" opacity="1" fill="#a9a9a9" fill-opacity="1"></use><g><use xlink:href="#iaocXdxWt" opacity="1" fill-opacity="0" stroke="#808080" stroke-width="5" stroke-opacity="1"></use></g></g><g><use xlink:href="#aQGwhQkRF" opacity="1" fill="#a9a9a9" fill-opacity="1"></use><g><use xlink:href="#aQGwhQkRF" opacity="1" fill-opacity="0" stroke="#808080" stroke-width="5" stroke-opacity="1"></use></g></g><g><use xlink:href="#bfLbpfxXV" opacity="1" fill="#a9a9a9" fill-opacity="1"></use><g><use xlink:href="#bfLbpfxXV" opacity="1" fill-opacity="0" stroke="#808080" stroke-width="5" stroke-opacity="1"></use></g></g><g><use xlink:href="#b34BlEwsbH" opacity="1" fill="#a9a9a9" fill-opacity="1"></use><g><use xlink:href="#b34BlEwsbH" opacity="1" fill-opacity="0" stroke="#808080" stroke-width="5" stroke-opacity="1"></use></g></g><g><use xlink:href="#a2Nv9qqd7" opacity="1" fill="#a9a9a9" fill-opacity="1"></use><g><use xlink:href="#a2Nv9qqd7" opacity="1" fill-opacity="0" stroke="#808080" stroke-width="5" stroke-opacity="1"></use></g></g><g><use xlink:href="#k6vyvzFJKV" opacity="1" fill="#a9a9a9" fill-opacity="1"></use><g><use xlink:href="#k6vyvzFJKV" opacity="1" fill-opacity="0" stroke="#808080" stroke-width="5" stroke-opacity="1"></use></g></g><g><use xlink:href="#i2rgXHDZbE" opacity="1" fill="#a9a9a9" fill-opacity="1"></use><g><use xlink:href="#i2rgXHDZbE" opacity="1" fill-opacity="0" stroke="#808080" stroke-width="5" stroke-opacity="1"></use></g></g><g><use xlink:href="#a7bLIZG0MI" opacity="1" fill="#a9a9a9" fill-opacity="1"></use><g><use xlink:href="#a7bLIZG0MI" opacity="1" fill-opacity="0" stroke="#808080" stroke-width="5" stroke-opacity="1"></use></g></g><g><use xlink:href="#cketbukao" opacity="1" fill="#a9a9a9" fill-opacity="1"></use><g><use xlink:href="#cketbukao" opacity="1" fill-opacity="0" stroke="#808080" stroke-width="5" stroke-opacity="1"></use></g></g><g><use xlink:href="#j1AeqiW9Hv" opacity="1" fill="#a9a9a9" fill-opacity="1"></use><g><use xlink:href="#j1AeqiW9Hv" opacity="1" fill-opacity="0" stroke="#808080" stroke-width="5" stroke-opacity="1"></use></g></g><g><use xlink:href="#a3Rp4ggBgz" opacity="1" fill="#a9a9a9" fill-opacity="1"></use><g><use xlink:href="#a3Rp4ggBgz" opacity="1" fill-opacity="0" stroke="#808080" stroke-width="5" stroke-opacity="1"></use></g></g><g><use xlink:href="#aN9msU0rN" opacity="1" fill="#a9a9a9" fill-opacity="1"></use><g><use xlink:href="#aN9msU0rN" opacity="1" fill-opacity="0" stroke="#808080" stroke-width="5" stroke-opacity="1"></use></g></g><g><use xlink:href="#b7RFQXvM2" opacity="1" fill="#a9a9a9" fill-opacity="1"></use><g><use xlink:href="#b7RFQXvM2" opacity="1" fill-opacity="0" stroke="#808080" stroke-width="5" stroke-opacity="1"></use></g></g><g><use xlink:href="#b74bNTbufN" opacity="1" fill="#a9a9a9" fill-opacity="1"></use><g><use xlink:href="#b74bNTbufN" opacity="1" fill-opacity="0" stroke="#808080" stroke-width="5" stroke-opacity="1"></use></g></g><g><use xlink:href="#a6nKUnLJLZ" opacity="1" fill="#a9a9a9" fill-opacity="1"></use><g><use xlink:href="#a6nKUnLJLZ" opacity="1" fill-opacity="0" stroke="#808080" stroke-width="5" stroke-opacity="1"></use></g></g><g><use xlink:href="#b29KEi46VD" opacity="1" fill="#a9a9a9" fill-opacity="1"></use><g><use xlink:href="#b29KEi46VD" opacity="1" fill-opacity="0" stroke="#808080" stroke-width="5" stroke-opacity="1"></use></g></g><g><use xlink:href="#feBzMps4T" opacity="1" fill="#a9a9a9" fill-opacity="1"></use><g><use xlink:href="#feBzMps4T" opacity="1" fill-opacity="0" stroke="#808080" stroke-width="5" stroke-opacity="1"></use></g></g><g><use xlink:href="#flk0LiCrM" opacity="1" fill="#a9a9a9" fill-opacity="1"></use><g><use xlink:href="#flk0LiCrM" opacity="1" fill-opacity="0" stroke="#808080" stroke-width="5" stroke-opacity="1"></use></g></g><g><use xlink:href="#cimZMPshN" opacity="1" fill="#a9a9a9" fill-opacity="1"></use><g><use xlink:href="#cimZMPshN" opacity="1" fill-opacity="0" stroke="#808080" stroke-width="5" stroke-opacity="1"></use></g></g><g><use xlink:href="#a1inyMr8s" opacity="1" fill="#a9a9a9" fill-opacity="1"></use><g><use xlink:href="#a1inyMr8s" opacity="1" fill-opacity="0" stroke="#808080" stroke-width="5" stroke-opacity="1"></use></g></g><g><use xlink:href="#a2xVMo6Z3e" opacity="1" fill="#a9a9a9" fill-opacity="1"></use><g><use xlink:href="#a2xVMo6Z3e" opacity="1" fill-opacity="0" stroke="#808080" stroke-width="5" stroke-opacity="1"></use></g></g><g><use xlink:href="#b4d43xRjHo" opacity="1" fill="#a9a9a9" fill-opacity="1"></use><g><use xlink:href="#b4d43xRjHo" opacity="1" fill-opacity="0" stroke="#808080" stroke-width="5" stroke-opacity="1"></use></g></g><g><use xlink:href="#kxKIOR32V" opacity="1" fill="#a9a9a9" fill-opacity="1"></use><g><use xlink:href="#kxKIOR32V" opacity="1" fill-opacity="0" stroke="#808080" stroke-width="5" stroke-opacity="1"></use></g></g><g><use xlink:href="#cqH2Xi2Hc" opacity="1" fill="#a9a9a9" fill-opacity="1"></use><g><use xlink:href="#cqH2Xi2Hc" opacity="1" fill-opacity="0" stroke="#808080" stroke-width="5" stroke-opacity="1"></use></g></g><g><use xlink:href="#c1An9TRAAr" opacity="1" fill="#a9a9a9" fill-opacity="1"></use><g><use xlink:href="#c1An9TRAAr" opacity="1" fill-opacity="0" stroke="#808080" stroke-width="5" stroke-opacity="1"></use></g></g><g><use xlink:href="#c2Uz8EaqFY" opacity="1" fill="#a9a9a9" fill-opacity="1"></use><g><use xlink:href="#c2Uz8EaqFY" opacity="1" fill-opacity="0" stroke="#808080" stroke-width="5" stroke-opacity="1"></use></g></g><g><use xlink:href="#a12bDq45nb" opacity="1" fill="#a9a9a9" fill-opacity="1"></use><g><use xlink:href="#a12bDq45nb" opacity="1" fill-opacity="0" stroke="#808080" stroke-width="5" stroke-opacity="1"></use></g></g><g><use xlink:href="#aHcd8kLu" opacity="1" fill="#a9a9a9" fill-opacity="1"></use><g><use xlink:href="#aHcd8kLu" opacity="1" fill-opacity="0" stroke="#808080" stroke-width="5" stroke-opacity="1"></use></g></g><g><use xlink:href="#a2bDhI2sxq" opacity="1" fill="#a9a9a9" fill-opacity="1"></use><g><use xlink:href="#a2bDhI2sxq" opacity="1" fill-opacity="0" stroke="#808080" stroke-width="5" stroke-opacity="1"></use></g></g><g><use xlink:href="#a1hxjoCO4m" opacity="1" fill="#a9a9a9" fill-opacity="1"></use><g><use xlink:href="#a1hxjoCO4m" opacity="1" fill-opacity="0" stroke="#808080" stroke-width="5" stroke-opacity="1"></use></g></g><g><use xlink:href="#b8HjAATkcB" opacity="1" fill="#a9a9a9" fill-opacity="1"></use><g><use xlink:href="#b8HjAATkcB" opacity="1" fill-opacity="0" stroke="#808080" stroke-width="5" stroke-opacity="1"></use></g></g><g><use xlink:href="#dAj1JBMIm" opacity="1" fill="#a9a9a9" fill-opacity="1"></use><g><use xlink:href="#dAj1JBMIm" opacity="1" fill-opacity="0" stroke="#808080" stroke-width="5" stroke-opacity="1"></use></g></g><g><use xlink:href="#cdNtL6Z2W" opacity="1" fill="#a9a9a9" fill-opacity="1"></use><g><use xlink:href="#cdNtL6Z2W" opacity="1" fill-opacity="0" stroke="#808080" stroke-width="5" stroke-opacity="1"></use></g></g><g><use xlink:href="#c3fOIDGqki" opacity="1" fill="#a9a9a9" fill-opacity="1"></use><g><use xlink:href="#c3fOIDGqki" opacity="1" fill-opacity="0" stroke="#808080" stroke-width="5" stroke-opacity="1"></use></g></g><g><use xlink:href="#a7moomfo4n" opacity="1" fill="#a9a9a9" fill-opacity="1"></use><g><use xlink:href="#a7moomfo4n" opacity="1" fill-opacity="0" stroke="#808080" stroke-width="5" stroke-opacity="1"></use></g></g><g><use xlink:href="#iS6s5Ldbo" opacity="1" fill="#a9a9a9" fill-opacity="1"></use><g><use xlink:href="#iS6s5Ldbo" opacity="1" fill-opacity="0" stroke="#808080" stroke-width="5" stroke-opacity="1"></use></g></g><g><use xlink:href="#afbqc7YOx" opacity="1" fill="#a9a9a9" fill-opacity="1"></use><g><use xlink:href="#afbqc7YOx" opacity="1" fill-opacity="0" stroke="#808080" stroke-width="5" stroke-opacity="1"></use></g></g><g><use xlink:href="#a7ZcHoOpH" opacity="1" fill="#a9a9a9" fill-opacity="1"></use><g><use xlink:href="#a7ZcHoOpH" opacity="1" fill-opacity="0" stroke="#808080" stroke-width="5" stroke-opacity="1"></use></g></g><g><use xlink:href="#a2Uoe2odA" opacity="1" fill="#a9a9a9" fill-opacity="1"></use><g><use xlink:href="#a2Uoe2odA" opacity="1" fill-opacity="0" stroke="#808080" stroke-width="5" stroke-opacity="1"></use></g></g><g><use xlink:href="#b2FVEerkAH" opacity="1" fill="#a9a9a9" fill-opacity="1"></use><g><use xlink:href="#b2FVEerkAH" opacity="1" fill-opacity="0" stroke="#808080" stroke-width="5" stroke-opacity="1"></use></g></g><g><use xlink:href="#f26bgfRR10" opacity="1" fill="#a9a9a9" fill-opacity="1"></use><g><use xlink:href="#f26bgfRR10" opacity="1" fill-opacity="0" stroke="#808080" stroke-width="5" stroke-opacity="1"></use></g></g><g><use xlink:href="#d17YTWzTkJ" opacity="1" fill="#a9a9a9" fill-opacity="1"></use><g><use xlink:href="#d17YTWzTkJ" opacity="1" fill-opacity="0" stroke="#808080" stroke-width="5" stroke-opacity="1"></use></g></g><g><use xlink:href="#a1PqujP382" opacity="1" fill="#a9a9a9" fill-opacity="1"></use><g><use xlink:href="#a1PqujP382" opacity="1" fill-opacity="0" stroke="#808080" stroke-width="5" stroke-opacity="1"></use></g></g><g><use xlink:href="#d1kj2Z0Jzs" opacity="1" fill="#a9a9a9" fill-opacity="1"></use><g><use xlink:href="#d1kj2Z0Jzs" opacity="1" fill-opacity="0" stroke="#808080" stroke-width="5" stroke-opacity="1"></use></g></g><g><use xlink:href="#fmT9cc5DW" opacity="1" fill="#a9a9a9" fill-opacity="1"></use><g><use xlink:href="#fmT9cc5DW" opacity="1" fill-opacity="0" stroke="#808080" stroke-width="5" stroke-opacity="1"></use></g></g><g><use xlink:href="#cQelZbCtG" opacity="1" fill="#a9a9a9" fill-opacity="1"></use><g><use xlink:href="#cQelZbCtG" opacity="1" fill-opacity="0" stroke="#808080" stroke-width="5" stroke-opacity="1"></use></g></g><g><use xlink:href="#h17JS36ws5" opacity="1" fill="#a9a9a9" fill-opacity="1"></use><g><use xlink:href="#h17JS36ws5" opacity="1" fill-opacity="0" stroke="#808080" stroke-width="5" stroke-opacity="1"></use></g></g><g><use xlink:href="#j4HwIxxBrH" opacity="1" fill="#a9a9a9" fill-opacity="1"></use><g><use xlink:href="#j4HwIxxBrH" opacity="1" fill-opacity="0" stroke="#808080" stroke-width="5" stroke-opacity="1"></use></g></g><g><use xlink:href="#alhoxJYaJ" opacity="1" fill="#a9a9a9" fill-opacity="1"></use><g><use xlink:href="#alhoxJYaJ" opacity="1" fill-opacity="0" stroke="#808080" stroke-width="5" stroke-opacity="1"></use></g></g><g><use xlink:href="#b2x8Z5Gjnp" opacity="1" fill="#a9a9a9" fill-opacity="1"></use><g><use xlink:href="#b2x8Z5Gjnp" opacity="1" fill-opacity="0" stroke="#808080" stroke-width="5" stroke-opacity="1"></use></g></g><g><use xlink:href="#a5afQqEGS7" opacity="1" fill="#a9a9a9" fill-opacity="1"></use><g><use xlink:href="#a5afQqEGS7" opacity="1" fill-opacity="0" stroke="#808080" stroke-width="5" stroke-opacity="1"></use></g></g><g><use xlink:href="#a6CXSGMh5X" opacity="1" fill="#a9a9a9" fill-opacity="1"></use><g><use xlink:href="#a6CXSGMh5X" opacity="1" fill-opacity="0" stroke="#808080" stroke-width="5" stroke-opacity="1"></use></g></g><g><use xlink:href="#a13gI979BR" opacity="1" fill="#a9a9a9" fill-opacity="1"></use><g><use xlink:href="#a13gI979BR" opacity="1" fill-opacity="0" stroke="#808080" stroke-width="5" stroke-opacity="1"></use></g></g><g><use xlink:href="#b4hql8mhji" opacity="1" fill="#a9a9a9" fill-opacity="1"></use><g><use xlink:href="#b4hql8mhji" opacity="1" fill-opacity="0" stroke="#808080" stroke-width="5" stroke-opacity="1"></use></g></g></g></g></svg>